<svg xmlns="http://www.w3.org/2000/svg" viewBox="0 0 180 180" role="img" aria-labelledby="title desc">
  <title id="title">Tatum logo mark</title>
  <desc id="desc">Official Tatum mark sourced from dashboard.tatum.io mask icon.</desc>
  <path fill="currentColor" d="M137.7 19.7c-.4.3-8.8.6-18.7.5-11 0-18.2.3-18.6.9-.8 1.3-.9 37.8 0 38.6.3.3 18.3.6 39.8.6h39.3l.2-19.6c.2-18.1.1-19.8-1.6-20.7-1-.5-2.1-.7-2.4-.3-.8.7-35.2.7-36.5-.1-.5-.3-1.2-.3-1.5.1z"/>
  <path fill="currentColor" d="M.5 40c-.1.3-.3 9.3-.3 20.1v19.5h39.5c21.7-.1 39.7.3 40 .7.3.5.5 18.5.5 40.1v39.2l7.9.2c4.4 0 8.4.4 8.9.7.5.3 1.1.2 1.3-.2.3-.5 6.1-.8 13-.7l12.6.1v-9.6c.1-5.3.1-10.5.2-11.6 0-1.1-.1-14.7-.1-30.3-.1-21.2-.4-28.2-1.3-28.3-.7 0-10.4.2-21.7.2l-20.5.2-.1-19.2c0-10.6-.4-19.6-.8-20-.8-.8-78.6-1.1-79.1-.3z"/>
</svg>
